<?xml version="1.0" encoding="UTF-8" standalone="no"?>
<!-- Created with Inkscape (http://www.inkscape.org/) -->

<svg
   width="120"
   height="120"
   viewBox="0 0 120 120"
   version="1.1"
   id="svg1"
   xml:space="preserve"
   xmlns="http://www.w3.org/2000/svg"
   xmlns:svg="http://www.w3.org/2000/svg"><defs
     id="defs1" /><g
     id="layer1"><rect
       style="fill:#333333;stroke-width:1.35378"
       id="rect1"
       width="118.19927"
       height="117.87981"
       x="0.95837319"
       y="1.2778293"
       ry="14.125782" /><path
       style="fill:#b3b3b3;stroke-width:0.145495"
       d="m 41.060278,108.51827 c -4.43408,-7.28806 -4.040964,-6.57305 -3.762298,-6.8434 0.3254,-0.3157 3.260364,-2.281435 3.29791,-2.208835 0.01646,0.0315 0.281597,0.838765 0.589838,1.793885 0.308275,0.95512 0.756491,2.29475 0.996392,2.97697 l 0.436194,1.24043 0.555421,-2.04796 c 0.622082,-2.29396 1.120129,-3.34114 2.253202,-4.737655 l 0.77006,-0.9491 -0.277644,-0.8462 c -0.15282,-0.4654 -0.318155,-0.90254 -0.36769,-0.97138 -0.125483,-0.17459 -2.257384,0.76011 -3.773659,1.65454 -2.686005,1.58444 -5.057742,3.600565 -7.629495,6.485575 -0.931542,1.04502 -0.946856,1.05493 -0.51771,0.33492 0.243392,-0.40807 0.947022,-1.41401 1.563867,-2.23534 l 1.121546,-1.49335 -1.46572,-2.393295 c -0.806157,-1.31629 -1.466674,-2.44266 -1.467827,-2.50302 -0.0033,-0.20425 4.834077,-2.1049 5.397766,-2.12055 0.04841,-0.002 0.331658,0.8107 0.629427,1.80457 l 0.541389,1.807 1.162517,-0.76269 c 0.63934,-0.41942 1.796093,-1.07593 2.570468,-1.4588 0.894456,-0.44223 1.399717,-0.77788 1.385357,-0.92028 -0.01317,-0.12328 -0.09156,-0.69666 -0.175874,-1.27421 l -0.153149,-1.05004 -1.296036,0.10765 c -4.335701,0.36021 -7.326523,1.4273 -11.492571,4.10025 -1.03223,0.66229 -1.85518,1.15904 -1.82883,1.10391 0.0264,-0.0547 0.59728,-0.60341 1.26876,-1.21837 0.67145,-0.61504 1.220814,-1.14641 1.220814,-1.18092 0,-0.0347 -0.907174,-1.56686 -2.015934,-3.40526 -1.10877,-1.83839 -2.00688,-3.38393 -1.99585,-3.43453 0.01,-0.0507 0.66042,-3.88767 1.44306,-8.52681 0.78261,-4.63907 1.66277,-9.82041 1.9559,-11.51401 l 0.533022,-3.07931 0.929764,-0.97271 c 0.511386,-0.53501 0.932497,-1.02236 0.935889,-1.08307 0.0066,-0.10612 -0.360707,-0.74141 -2.405295,-4.16773 l -0.93945,-1.57433 0.41426,-3.22504 0.41423,-3.22503 -0.90058,-1.87005 -0.90055,-1.87007 -0.46324,-5.29241 c -0.25459,-2.91083 -0.61618,-6.9547 -0.80316,-8.98638 l -0.33996,-3.693985 -0.71502,-0.805197 c -1.969731,-2.21819 -5.791081,-5.418425 -9.393181,-7.866413 -1.14045,-0.775051 -1.95833,-1.37079 -1.81753,-1.323852 0.14063,0.04674 0.97597,0.317023 1.85593,0.600218 1.88986,0.60816 5.39326,2.093707 6.58693,2.793052 0.46422,0.27204 0.8108,0.425019 0.77019,0.340055 -0.13372,-0.279527 -2.65689,-2.890343 -4.14188,-4.285795 C 18.320628,15.143324 14.828468,12.444094 10.341238,9.52594 8.6165783,8.40423 7.2476883,7.486177 7.2993983,7.485756 c 0.24569,-0.0027 3.3896997,0.898491 4.6418997,1.329515 5.63068,1.938194 10.80419,4.994793 15.204111,8.9829 0.75926,0.688231 1.33919,1.16111 1.2887,1.050896 -0.64333,-1.404687 -3.670121,-5.949849 -5.337431,-8.014948 -0.60595,-0.750449 -1.06855,-1.364455 -1.02811,-1.364455 0.14162,0 2.42694,1.874697 3.50438,2.874823 4.144781,3.847459 7.548704,8.567692 10.034068,13.91419 0.729286,1.56882 0.950018,1.898858 2.016232,3.014836 4.466191,4.674532 8.806141,10.445582 12.011304,15.972102 0.805236,1.3884 0.983283,1.6098 1.2302,1.52974 0.78982,-0.25617 8.123325,-1.74665 8.59532,-1.74695 0.477364,-3.3e-4 7.871371,1.49143 8.659804,1.74712 0.263158,0.0854 0.453222,-0.16118 1.561865,-2.02423 3.340028,-5.61275 7.435599,-11.01757 11.733127,-15.483814 0.971295,-1.009433 1.312835,-1.48777 1.758314,-2.462643 3.035089,-6.641705 7.126798,-12.007649 12.457577,-16.337097 0.692795,-0.562641 1.285698,-0.989362 1.317546,-0.9482 0.03287,0.04071 -0.304646,0.486489 -0.747661,0.989634 -1.300786,1.477157 -4.342521,5.94501 -5.477239,8.045339 -0.350664,0.649008 -0.320796,0.629717 1.156453,-0.746032 3.881265,-3.614713 9.222022,-6.844348 14.491492,-8.763167 1.41167,-0.514055 5.20734,-1.591291 5.36605,-1.522937 0.0652,0.02881 -0.38801,0.342989 -1.00781,0.699523 -1.36824,0.787104 -5.21426,3.374125 -7.06835,4.754534 -3.07596,2.290081 -7.77303,6.541295 -9.87871,8.940964 l -0.691377,0.787927 1.087947,-0.592878 c 1.61983,-0.882711 4.165893,-1.961894 6.39986,-2.712685 1.09114,-0.36675 2.0384,-0.667093 2.10496,-0.667627 0.0666,-4.99e-4 -0.65344,0.509716 -1.59993,1.133758 -2.187593,1.44218 -3.893252,2.711318 -5.752914,4.280619 -1.65898,1.399939 -4.149217,3.786766 -4.559428,4.37003 -0.24075,0.342523 -0.324739,1.002343 -0.741338,5.843912 -0.258219,3.00181 -0.614507,7.04883 -0.791374,8.9934 l -0.321775,3.53559 -0.8902,1.80505 -0.890213,1.80504 0.385172,2.95414 c 0.211785,1.62478 0.385219,3.10426 0.385219,3.28774 0,0.18347 -0.592874,1.32564 -1.317511,2.53813 -0.724614,1.21249 -1.455052,2.45826 -1.623188,2.76837 l -0.305636,0.56384 0.922517,1.09005 0.922547,1.09004 0.689502,4.05201 c 0.379218,2.2286 1.246079,7.35385 1.926293,11.38944 0.680208,4.0356 1.262669,7.42466 1.294324,7.53125 0.03299,0.10646 -0.8691,1.70833 -2.00168,3.55945 -1.13261,1.85111 -2.01241,3.41835 -1.955171,3.48274 0.0576,0.0648 0.547911,0.50778 1.090384,0.98531 1.491377,1.31273 1.459072,1.46502 -0.09616,0.45425 -4.209257,-2.73549 -7.027959,-3.82313 -11.001703,-4.24514 -2.409348,-0.25591 -2.163915,-0.36922 -2.353199,1.0864 -0.08958,0.69016 -0.144252,1.27317 -0.120865,1.29565 0.02303,0.0229 0.589375,0.29214 1.258162,0.59942 0.668817,0.30722 1.810709,0.94364 2.537597,1.4143 1.121511,0.72621 1.332757,0.81479 1.395141,0.58527 0.167965,-0.61738 0.967111,-3.25187 1.002615,-3.30471 0.08265,-0.12315 1.998481,0.52553 3.679592,1.24595 1.243073,0.53273 1.748108,0.82127 1.703022,0.97311 -0.03493,0.11875 -0.679592,1.23178 -1.43187,2.47349 l -1.367769,2.257765 0.701166,0.93627 c 0.800154,1.06851 2.276214,3.29664 2.276214,3.43602 0,0.0514 -0.381815,-0.35902 -0.848468,-0.91153 -2.779546,-3.29095 -6.641238,-6.280895 -9.972477,-7.721225 -0.749507,-0.32412 -1.379929,-0.56526 -1.400932,-0.53581 -0.01981,0.0294 -0.187408,0.45565 -0.369965,0.94736 l -0.331795,0.89397 0.927926,1.17973 c 1.046676,1.330675 1.655781,2.671325 2.247664,4.947205 0.207168,0.79697 0.400296,1.47927 0.428787,1.51621 0.02965,0.0367 0.506511,-1.26988 1.061964,-2.90404 0.555481,-1.63416 1.038412,-2.971225 1.073161,-2.971225 0.170275,0 3.344312,2.355795 3.344312,2.482165 0,0.0803 -0.672239,1.24777 -1.493909,2.59444 -0.821634,1.34671 -2.298942,3.77092 -3.282953,5.38715 -0.983975,1.61624 -1.810914,2.91037 -1.837593,2.87585 -0.02637,-0.0347 -0.335739,-1.4685 -0.686836,-3.18668 -1.096379,-5.36604 -1.618108,-7.07576 -2.493993,-8.17269 l -0.433094,-0.54242 -0.864124,0.49904 -0.864096,0.49904 -1.285527,3.10333 c -0.707017,1.70682 -1.400667,3.19841 -1.541502,3.31465 -0.14063,0.11626 -1.903199,0.9271 -3.916467,1.80194 l -3.660395,1.59055 -3.81888,-1.65513 c -2.100382,-0.91034 -3.874441,-1.72693 -3.942354,-1.81466 -0.06785,-0.0877 -0.681464,-1.5216 -1.363455,-3.18632 l -1.23998,-3.02681 -0.843507,-0.56446 c -0.817854,-0.54735 -0.853588,-0.55603 -1.174082,-0.28466 -0.898178,0.76043 -1.685002,3.26228 -2.776708,8.82872 -0.307617,1.56891 -0.588225,2.85137 -0.623433,2.84993 -0.03492,-10e-4 -1.244756,-1.94339 -2.687948,-4.31542 z M 62.541069,106.877 c 1.517856,-0.64012 2.839914,-1.24979 2.937926,-1.35492 0.196954,-0.21122 1.096384,-2.44148 1.022908,-2.53646 -0.02637,-0.0333 -0.347171,0.0427 -0.715127,0.1684 -0.662493,0.22587 -0.679586,0.22206 -1.785982,-0.39772 -0.614374,-0.34419 -1.874512,-0.97674 -2.800289,-1.40573 l -1.683257,-0.77998 -1.32469,0.61069 c -0.728563,0.33592 -1.958267,0.94445 -2.732642,1.35238 -1.434365,0.75558 -1.730026,0.80293 -2.740578,0.43883 -0.2951,-0.10625 -0.283573,-0.0507 0.261176,1.2768 l 0.569616,1.388 2.810962,1.18882 c 1.546015,0.65381 2.948103,1.19466 3.115711,1.20179 0.167641,0.006 1.546642,-0.51072 3.064498,-1.15086 z m -7.484017,-6.924455 c 0.784749,-0.44617 1.828501,-1.02881 2.319401,-1.29478 0.977817,-0.52973 1.05584,-0.67864 1.078599,-2.05755 0.01317,-0.75569 -0.0066,-0.79624 -0.883193,-1.80199 -0.492779,-0.56592 -0.896004,-1.10038 -0.896004,-1.1877 0,-0.0873 0.143927,-0.3799 0.319801,-0.65014 0.507039,-0.77862 0.356953,-1.65568 -0.392622,-2.29414 -0.356557,-0.30374 -1.07784,-0.43409 -1.240244,-0.22418 -0.0415,0.0534 0.0066,0.39692 0.106052,0.76272 l 0.181474,0.66503 -0.351388,-0.29182 c -1.289614,-1.07122 -1.789802,-1.98595 -2.142342,-3.91809 -0.285219,-1.5641 -0.245038,-1.98462 0.414985,-4.30977 l 0.607953,-2.14216 0.08695,1.55344 c 0.0853,1.52596 0.451938,4.61321 0.565071,4.75928 0.03294,0.0407 0.317167,-0.0884 0.634203,-0.28761 0.317166,-0.1991 0.711237,-0.36194 0.875781,-0.36194 0.164677,0 0.912605,0.29768 1.662278,0.66148 0.749673,0.36388 1.444607,0.66156 1.544303,0.66156 0.09979,0 0.772432,-0.29768 1.494965,-0.66156 1.492825,-0.75173 1.746559,-0.78423 2.531275,-0.32423 0.309592,0.18154 0.593724,0.29038 0.631303,0.24186 0.145246,-0.18781 0.522057,-3.7052 0.531445,-4.96198 0.01317,-1.57144 0.04084,-1.52814 0.823184,1.22018 0.552459,1.94099 0.567706,2.04471 0.445381,3.0263 -0.142938,1.14718 -0.520111,2.63088 -0.818142,3.21856 -0.206176,0.40666 -1.587943,1.87907 -1.763554,1.87926 -0.05434,6e-5 -0.0066,-0.22988 0.105394,-0.51099 0.275338,-0.688 0.164017,-0.97739 -0.376122,-0.97739 -0.497388,0 -1.178885,0.63232 -1.365662,1.26708 -0.133716,0.45398 0.03426,1.13261 0.407147,1.64719 l 0.25426,0.35073 -0.981307,1.15691 -0.981307,1.15693 0.09189,1.02188 c 0.07048,0.78617 0.155125,1.07362 0.366536,1.24612 0.151173,0.12329 1.24703,0.76152 2.435334,1.41819 l 2.160587,1.193965 1.254833,-0.53108 c 1.828839,-0.773945 1.902608,-0.889115 0.779744,-1.216775 -1.01661,-0.29668 -2.743409,-1.17371 -2.952845,-1.49976 -0.108027,-0.168 0.02305,-0.17986 0.663153,-0.0593 1.119403,0.21089 2.948663,0.044 3.944892,-0.35782 0.832077,-0.33637 1.657761,-0.9318 1.738621,-1.2538 0.02637,-0.10514 -0.693323,-0.17112 -1.974081,-0.18109 -1.282861,-0.0106 -2.318081,-0.10507 -2.847615,-0.26158 l -0.831978,-0.2458 0.959997,-0.21397 c 2.3057,-0.5142 5.110075,-1.81694 5.688259,-2.64244 0.238113,-0.33992 0.236472,-0.34159 -0.278969,-0.34159 -0.447128,0 -1.301496,0.10351 -4.833381,0.5858 -0.589837,0.0805 -0.431124,-0.05 2.023244,-1.66052 2.458026,-1.61326 2.656363,-1.77613 2.574519,-2.11453 -0.04905,-0.20169 -0.503939,-1.91096 -1.011505,-3.79845 -0.507606,-1.88748 -0.893242,-3.43178 -0.85708,-3.43178 0.07808,0 2.947191,2.01936 3.37419,2.37494 0.284559,0.23706 0.392456,0.15919 2.728392,-1.97471 2.302635,-2.10349 2.443598,-2.26331 2.651558,-3.00615 0.12087,-0.43156 0.777832,-3.29706 1.460085,-6.36789 0.682289,-3.07082 1.253223,-5.56404 1.268664,-5.54047 0.01646,0.0235 1.273574,3.23257 2.795777,7.13113 1.522206,3.89853 2.767623,7.00863 2.767623,6.91133 0,-0.0972 -0.111324,-0.79379 -0.247348,-1.54777 -0.135691,-0.75398 -0.654583,-3.78965 -1.152604,-6.74595 -0.497915,-2.95617 -0.932192,-5.52807 -0.965001,-5.71518 -0.06225,-0.35674 -0.419921,-0.73453 -6.722913,-7.10501 -2.147121,-2.17016 -4.940656,-4.99538 -6.207843,-6.27827 -3.394407,-3.43653 -3.313325,-3.36164 -3.221759,-2.97644 0.110991,0.46653 0.85486,5.75543 0.816595,5.80492 -0.01646,0.0228 -0.834585,-1.52556 -1.815561,-3.44049 -0.98101,-1.91495 -1.901418,-3.54284 -2.045379,-3.61755 -0.143927,-0.0747 -1.212085,-0.32844 -2.373646,-0.56384 -1.161595,-0.23541 -2.218423,-0.45832 -2.348583,-0.4955 -0.205186,-0.0587 -0.225935,0.007 -0.155455,0.49216 0.04479,0.30782 0.534639,2.16008 1.08871,4.11614 l 1.007424,3.55645 -0.627581,3.02567 c -0.345228,1.66412 -0.965005,4.65982 -1.37742,6.65714 -0.71239,3.45046 -0.756754,3.60294 -0.889846,3.05966 -0.26974,-1.10081 -2.58519,-12.52728 -2.583773,-12.75049 0.0012,-0.12394 0.237463,-1.04404 0.526009,-2.04465 0.700798,-2.43031 1.662441,-6.07377 1.618177,-6.13094 -0.03491,-0.0447 -4.371567,0.83907 -4.914703,1.00157 -0.184767,0.0554 -0.858162,1.2303 -2.0851,3.63922 -0.996589,1.95664 -1.829754,3.5575 -1.851424,3.5575 -0.02305,0 0.15216,-1.32103 0.386792,-2.93562 0.234499,-1.6146 0.412909,-2.98743 0.396606,-3.05073 -0.01646,-0.0634 -1.766649,1.64845 -3.889657,3.80391 -2.123043,2.15545 -5.7287,5.81423 -8.012597,8.13061 l -4.152582,4.21157 -0.477792,2.8174 c -0.262823,1.54957 -0.818442,4.82086 -1.23481,7.26954 -0.416401,2.44865 -0.742789,4.46797 -0.725366,4.48733 0.01647,0.0185 1.269852,-3.15628 2.783195,-7.05698 1.513377,-3.90071 2.780563,-7.09215 2.815935,-7.0921 0.03557,7e-5 0.66783,2.73517 1.405351,6.07801 1.08222,4.90516 1.403273,6.15864 1.663956,6.49633 0.423152,0.54823 4.546652,4.29512 4.72684,4.29512 0.07641,0 0.911485,-0.55824 1.855509,-1.2404 0.944058,-0.68226 1.756768,-1.24041 1.806105,-1.24041 0.04973,0 0.04907,0.13021 0,0.2894 -0.04973,0.15912 -0.514614,1.87064 -1.033575,3.80323 l -0.943464,3.51382 2.626194,1.6739 c 1.44441,0.92064 2.604094,1.70248 2.577055,1.7374 -0.02635,0.0354 -1.081068,-0.0848 -2.342292,-0.26598 -2.506475,-0.36014 -3.381137,-0.409 -3.381137,-0.189 0,0.23842 0.905654,0.93308 1.855936,1.42344 0.820715,0.42355 3.104711,1.21486 4.351871,1.50784 l 0.512013,0.12026 -0.703991,0.23415 c -0.441861,0.14696 -1.479323,0.24501 -2.786392,0.26317 -2.382309,0.0334 -2.556273,0.16886 -1.270545,0.99129 1.2273,0.78497 3.39497,1.12879 4.98492,0.79063 0.334392,-0.0712 0.607954,-0.0777 0.607954,-0.0146 0,0.28381 -2.45345,1.50961 -3.497465,1.74746 -0.269082,0.0614 -0.442025,0.1671 -0.383993,0.23501 0.111322,0.1302 2.227743,1.094895 2.665487,1.214965 0.140962,0.0387 0.276326,0.0788 0.301028,0.0894 0.02635,0.0106 0.687195,-0.34581 1.471944,-0.792025 z m -4.392185,-16.23076 c 0.0026,-0.13263 0.168628,-1.12137 0.36881,-2.19727 l 0.364,-1.95622 -0.445516,-1.18616 c -0.245038,-0.65234 -0.464025,-1.21122 -0.486585,-1.24183 -0.02305,-0.0308 -0.683836,-0.16412 -1.469441,-0.29668 -1.715764,-0.28947 -2.564704,-0.67536 -3.548779,-1.61313 -0.953376,-0.90856 -1.53699,-1.77896 -1.891999,-2.82191 -0.284561,-0.83576 -0.703136,-2.77922 -0.703136,-3.26413 0,-0.14144 -0.720492,-0.98571 -1.601083,-1.87617 -0.880591,-0.89045 -1.586196,-1.63357 -1.567984,-1.65139 0.01646,-0.0179 1.563109,0.1676 3.433043,0.412 l 3.399911,0.44437 2.039946,1.49526 c 1.121973,0.8224 2.054536,1.44809 2.072354,1.39043 0.01646,-0.0574 -0.342197,-1.28506 -0.799965,-2.72757 -0.457801,-1.44251 -0.832407,-2.69933 -0.832407,-2.79296 0,-0.0936 0.214409,-0.51278 0.476739,-0.93149 0.910627,-1.45414 3.747146,-5.64865 3.747146,-5.5411 0,0.0594 -0.205187,1.96285 -0.456187,4.22969 -0.250967,2.26684 -0.438137,4.22326 -0.415973,4.3476 0.02305,0.12435 0.833132,1.42444 1.802252,2.88911 l 1.762071,2.66305 -0.219678,2.63822 c -0.120872,1.45104 -0.235487,2.61747 -0.255248,2.59209 -0.01976,-0.0255 -0.182791,-1.15004 -0.362452,-2.4993 -0.179828,-1.34923 -0.372367,-2.55846 -0.428127,-2.68716 -0.107369,-0.24769 -2.071696,-2.1983 -2.214338,-2.19881 -0.04644,-1.6e-4 0.03294,0.39044 0.172581,0.86799 0.61994,2.10133 1.478662,6.02231 1.838118,8.39344 0.05896,0.38811 0.04018,0.37916 -0.302345,-0.14538 l -0.364956,-0.55884 -0.331989,0.72423 c -0.656399,1.43191 -2.783493,5.33589 -2.77875,5.1 z m -0.910694,-9.16752 c 0.576697,-0.26289 1.622953,-1.16572 1.716653,-1.48128 0.03294,-0.10898 -0.396178,-0.52226 -0.978572,-0.94352 l -1.036211,-0.74943 -0.498936,0.81561 c -0.274351,0.44857 -0.546594,0.75243 -0.604857,0.67524 -0.212762,-0.28171 -0.735577,-1.80962 -0.812811,-2.37459 -0.07443,-0.54409 -0.15249,-0.62398 -1.249399,-1.27872 l -1.17006,-0.69839 0.07048,1.32902 c 0.08761,1.64943 0.507368,2.8448 1.326403,3.77637 0.962336,1.09455 2.136282,1.43166 3.237343,0.92969 z m 17.522269,7.31207 c -0.600971,-1.11329 -1.307466,-2.46374 -1.569963,-3.001 l -0.477264,-0.97687 -0.303992,0.48075 c -0.22956,0.36281 -0.305311,0.41147 -0.308605,0.19844 -0.0066,-0.46827 0.835076,-4.52921 1.442927,-6.95345 0.313547,-1.25075 0.544817,-2.27409 0.51376,-2.27409 -0.04348,0 -0.957988,0.86687 -2.198497,2.08469 -0.02635,0.0248 -0.206504,1.2213 -0.403722,2.65973 -0.197282,1.43844 -0.369335,2.57812 -0.382708,2.53266 -0.01317,-0.046 -0.121201,-1.21318 -0.240098,-2.59487 l -0.216056,-2.51219 1.763817,-2.69742 c 1.542095,-2.35833 1.763321,-2.7702 1.759899,-3.27641 -0.0024,-0.31844 -0.196954,-2.29076 -0.432771,-4.38292 -0.235817,-2.09216 -0.418808,-3.81954 -0.406519,-3.83863 0.07674,-0.11921 4.219505,6.33329 4.204814,6.54896 -0.0098,0.14663 -0.39681,1.45025 -0.859577,2.89686 -0.462838,1.4466 -0.824993,2.65154 -0.804806,2.67762 0.01981,0.0262 0.982488,-0.63486 2.138449,-1.4687 l 2.101806,-1.51613 3.303083,-0.42422 c 1.816708,-0.23332 3.303105,-0.37329 3.303105,-0.31109 0,0.0621 -0.664896,0.77233 -1.477537,1.57804 -1.028475,1.01973 -1.496809,1.59062 -1.540951,1.87851 -0.54402,3.54767 -1.187546,4.92582 -3.011363,6.44899 -0.813671,0.67955 -1.805323,1.04635 -3.377883,1.2495 -0.492839,0.0641 -0.986705,0.17661 -1.097597,0.25094 -0.110997,0.0743 -0.390352,0.66449 -0.621099,1.31126 l -0.419459,1.17597 0.385307,2.10009 c 0.211774,1.15507 0.372076,2.11789 0.355902,2.13961 -0.01647,0.0222 -0.521137,-0.87137 -1.122144,-1.98465 z m 4.442806,-7.52866 c 0.633974,-0.42254 1.359373,-1.39607 1.704171,-2.28715 0.342916,-0.88623 0.612891,-2.76315 0.457371,-3.17983 -0.110663,-0.29695 -0.177852,-0.27645 -1.199471,0.36688 -1.049019,0.66049 -1.086604,0.70414 -1.227732,1.4256 -0.15842,0.81006 -0.62076,2.06876 -0.817621,2.22596 -0.06788,0.0541 -0.313213,-0.23567 -0.545831,-0.64387 -0.232523,-0.40826 -0.468539,-0.74514 -0.524688,-0.74869 -0.165013,-0.0106 -2.009913,1.33523 -2.009913,1.46605 0,0.26203 0.742662,1.01125 1.407951,1.4203 0.582724,0.35828 0.836952,0.42088 1.475726,0.36321 0.428066,-0.0387 0.998045,-0.22053 1.279966,-0.40839 z m -15.191603,5.29315 c 0.319473,-0.57993 2.802003,-3.67526 2.947479,-3.67526 0.273691,0 3.195744,3.64098 3.211553,4.00176 0.0026,0.0634 -0.470151,-0.22079 -1.050933,-0.63145 -0.580781,-0.4106 -1.303216,-0.89525 -1.605364,-1.07695 l -0.549394,-0.33037 -1.607011,1.09267 c -1.46213,0.99415 -1.583496,1.05 -1.346297,0.61964 z m -17.159187,11.63284 c 1.003143,-0.33531 2.926399,-0.70831 4.341398,-0.84196 l 1.177601,-0.1112 0.145574,-0.90583 c 0.08003,-0.49824 0.126142,-0.92689 0.102429,-0.9526 -0.02305,-0.0255 -1.454324,-1.48266 -3.179079,-3.23767 -1.724788,-1.75498 -3.170055,-3.25772 -3.211719,-3.33939 -0.0415,-0.0817 -0.267434,-1.22369 -0.501802,-2.53781 -0.23417,-1.31411 -0.47384,-2.3893 -0.532201,-2.3893 -0.05829,0 -0.106382,0.0673 -0.106382,0.14936 0,0.0822 -1.183266,2.69599 -2.629454,5.80844 -1.446221,3.11246 -2.612592,5.72219 -2.591942,5.7994 0.06522,0.24342 1.313393,2.28123 1.403571,2.2912 0.0471,0.005 0.612365,-1.31153 1.255625,-2.92613 0.643226,-1.61461 1.216926,-2.99757 1.274793,-3.07325 0.05764,-0.0756 0.247673,0.40807 0.421967,1.07502 1.035057,3.96271 1.547662,5.60987 1.719321,5.52475 0.09815,-0.0488 0.507633,-0.19848 0.9102,-0.33312 z m 42.311174,-2.92055 c 0.468347,-1.69191 0.851579,-3.16179 0.851579,-3.2664 0,-0.54448 0.312229,0.0704 1.351766,2.66274 0.629256,1.56912 1.162776,2.94598 1.18553,3.05967 0.07544,0.37636 0.231538,0.21811 0.96326,-0.977 l 0.724843,-1.18373 -0.240763,-0.51151 c -0.940759,-1.99767 -5.002569,-10.69831 -5.111714,-10.94959 -0.168628,-0.3881 -0.147228,-0.46633 -0.66352,2.44013 l -0.400618,2.25608 -3.259215,3.3484 c -2.333891,2.39773 -3.242152,3.42415 -3.199006,3.61518 0.03299,0.14677 0.0975,0.53949 0.143267,0.87273 l 0.08301,0.60597 1.2358,0.10953 c 1.516077,0.13435 3.245053,0.47554 4.435727,0.87524 0.492805,0.16538 0.930358,0.25981 0.97238,0.20976 0.04213,-0.05 0.459609,-1.47529 0.927978,-3.16721 z M 36.119654,58.548495 c 0.110333,-0.38658 0.450456,-1.58355 0.756161,-2.6599 l 0.555816,-1.95701 -1.451459,-5.55192 c -0.798318,-3.05356 -1.433245,-5.57547 -1.41098,-5.60425 0.02305,-0.0288 0.411921,0.0936 0.865868,0.27197 0.453981,0.17834 0.868768,0.32491 0.921826,0.3255 0.05303,6.5e-4 -0.657322,-1.95239 -1.578654,-4.34016 l -1.675187,-4.34144 0.643127,0.82694 c 0.959437,1.23379 8.199439,11.06811 8.170818,11.09875 -0.01317,0.0146 -0.975049,-0.15257 -2.13661,-0.3713 -1.161596,-0.21871 -2.188223,-0.37756 -2.281462,-0.35286 -0.09321,0.0248 1.074382,1.45002 2.594675,3.16745 1.520327,1.71745 2.789949,3.17641 2.821403,3.24216 0.03294,0.0654 -0.790579,0.0854 -1.826723,0.044 l -1.883899,-0.0755 1.215972,1.62459 c 0.668816,0.89353 1.223643,1.64925 1.233031,1.67939 0.03424,0.10894 3.886825,-3.94219 3.886825,-4.08682 0,-0.0817 -0.393511,-1.14055 -0.874399,-2.35311 -2.209365,-5.57049 -5.039824,-10.43285 -9.128643,-15.68164 -1.347713,-1.730047 -4.317161,-5.129149 -4.480811,-5.129149 -0.0296,0 0.3254,3.963109 0.78929,8.806909 l 0.843639,8.8069 1.254605,2.53692 1.254637,2.53691 -0.316509,0.44003 c -0.173899,0.24207 -0.411494,0.63399 -0.527624,0.87106 -0.204857,0.41821 -0.589903,2.61008 -0.589903,3.35869 0,0.34112 1.867629,3.56066 2.069357,3.56728 0.0471,10e-4 0.175545,-0.31347 0.285878,-0.7001 z m 48.100778,-0.82694 c 0.522052,-0.8414 0.983436,-1.60426 1.025298,-1.69522 0.104405,-0.22713 -0.218354,-2.54049 -0.457956,-3.28184 -0.107704,-0.33258 -0.346485,-0.86037 -0.531023,-1.17293 -0.395321,-0.66968 -0.476632,-0.39491 1.048405,-3.54018 l 1.069833,-2.20636 0.76742,-8.29577 c 0.422106,-4.56266 0.800164,-8.500421 0.840181,-8.750572 0.0402,-0.25008 0.03299,-0.454853 -0.01647,-0.454853 -0.174887,0 -2.707508,2.903418 -4.390671,5.033205 -4.076467,5.15819 -6.872902,9.94454 -9.196485,15.74051 -0.514347,1.28311 -0.935229,2.37719 -0.935229,2.43128 0,0.0541 0.647939,0.74723 1.439934,1.54032 0.791997,0.79308 1.672324,1.68563 1.956255,1.98343 l 0.516292,0.54148 1.202634,-1.66363 1.2026,-1.66364 -1.878894,0.0627 c -1.033379,0.0347 -1.878886,0.0541 -1.878886,0.044 0,-0.0106 1.278079,-1.46249 2.840167,-3.22701 1.562094,-1.76451 2.75724,-3.22854 2.655905,-3.25339 -0.101439,-0.0248 -1.12181,0.13008 -2.267792,0.34446 -1.145958,0.2143 -2.067508,0.33211 -2.047949,0.26177 0.08696,-0.31242 8.678249,-11.82444 8.669552,-11.61696 -0.0024,0.0768 -0.73996,2.01888 -1.63721,4.31571 -0.897233,2.29682 -1.600164,4.17548 -1.562092,4.17478 0.03826,-6.5e-4 0.440674,-0.14717 0.894587,-0.3255 0.45392,-0.17833 0.85046,-0.29181 0.881118,-0.25223 0.02965,0.0394 -0.593787,2.55911 -1.387693,5.59881 l -1.443525,5.52673 0.74728,2.66534 c 0.410961,1.46594 0.787342,2.66535 0.836354,2.66535 0.04905,0 0.516326,-0.68842 1.038348,-1.52984 z"
       id="path1" /></g></svg>
